<?xml version="1.0" encoding="iso-8859-1"?>
<!-- Generator: Adobe Illustrator 19.0.0, SVG Export Plug-In . SVG Version: 6.00 Build 0)  -->
<svg version="1.1" id="Capa_1" xmlns="http://www.w3.org/2000/svg" xmlns:xlink="http://www.w3.org/1999/xlink" x="0px" y="0px"
	 viewBox="0 0 512 512" style="enable-background:new 0 0 512 512;" xml:space="preserve">
<circle style="fill:#2789E1;" cx="256" cy="256" r="256"/>
<path style="fill:#1D67BC;" d="M266.671,511.762c122.334-5.018,222.508-95.873,241.91-213.946l-46.676-46.676l-10.071,4.882
	L266.148,70.336l-62.421,144.497L50.095,292.988L172.857,415.75l-1.191,1.006L266.671,511.762z"/>
<polygon style="fill:#FCD748;" points="225.372,146.216 50.095,251.14 50.095,292.988 231.642,255.277 "/>
<polygon style="fill:#FABF40;" points="286.628,146.216 461.905,251.14 461.905,292.988 280.358,255.277 "/>
<polygon style="fill:#FCD748;" points="231.979,354.605 171.666,394.316 171.666,416.757 235.789,417.101 "/>
<polygon style="fill:#FABF40;" points="280.022,354.605 340.334,394.316 340.334,416.757 276.211,417.101 "/>
<path style="fill:#FFFFFF;" d="M297.5,138.999l-16.936,277.758h-49.126l-16.936-277.758c-0.816-13.387,2.791-26.67,10.268-37.805
	l19.178-28.563c5.752-8.567,18.356-8.568,24.108,0l19.178,28.563C294.708,112.329,298.316,125.613,297.5,138.999z"/>
<path style="fill:#E0E0E0;" d="M287.232,101.194l-19.178-28.563c-2.966-4.417-7.752-6.538-12.483-6.401v350.526h24.992
	L297.5,138.999C298.316,125.613,294.708,112.329,287.232,101.194z"/>
<g>
</g>
<g>
</g>
<g>
</g>
<g>
</g>
<g>
</g>
<g>
</g>
<g>
</g>
<g>
</g>
<g>
</g>
<g>
</g>
<g>
</g>
<g>
</g>
<g>
</g>
<g>
</g>
<g>
</g>
</svg>
