<?xml version="1.0" encoding="iso-8859-1"?>
<!-- Generator: Adobe Illustrator 19.0.0, SVG Export Plug-In . SVG Version: 6.00 Build 0)  -->
<svg version="1.1" id="Capa_1" xmlns="http://www.w3.org/2000/svg" xmlns:xlink="http://www.w3.org/1999/xlink" x="0px" y="0px"
	 viewBox="0 0 512 512" style="enable-background:new 0 0 512 512;" xml:space="preserve">
<circle style="fill:#2789E1;" cx="256" cy="256" r="256"/>
<path style="fill:#1D67BC;" d="M508.331,299.33L286,77L163.359,435l76.478,76.478C245.184,511.811,250.569,512,256,512
	C382.614,512,487.743,420.077,508.331,299.33z"/>
<rect x="226" y="77" style="fill:#F0F0F0;" width="60" height="116"/>
<rect x="255.57" y="77" style="fill:#E2E2E2;" width="30.429" height="116"/>
<rect x="226" y="101.13" style="fill:#EC5353;" width="60" height="24.13"/>
<rect x="255.57" y="101.13" style="fill:#D13135;" width="30.429" height="24.13"/>
<rect x="189" y="147.59" style="fill:#FCD748;" width="134" height="99.16"/>
<rect x="255.57" y="147.59" style="fill:#FABF40;" width="67.43" height="99.16"/>
<rect x="160.5" y="186.5" style="fill:#595959;" width="191" height="120.5"/>
<rect x="255.57" y="186.5" style="fill:#303030;" width="95.93" height="120.5"/>
<rect x="180.16" y="216.31" style="fill:#92CBF7;" width="151.68" height="30.441"/>
<rect x="255.57" y="216.31" style="fill:#88BEE2;" width="76.27" height="30.44"/>
<polygon style="fill:#F0F0F0;" points="348.641,435 163.359,435 109.184,297 256,227 402.816,297 "/>
<polygon style="fill:#E0E0E0;" points="402.816,297 256,227 255.571,227.204 255.571,435 348.641,435 "/>
<g>
</g>
<g>
</g>
<g>
</g>
<g>
</g>
<g>
</g>
<g>
</g>
<g>
</g>
<g>
</g>
<g>
</g>
<g>
</g>
<g>
</g>
<g>
</g>
<g>
</g>
<g>
</g>
<g>
</g>
</svg>
