<svg enable-background="new 0 0 140 140" height="512" viewBox="0 0 140 140" width="512" xmlns="http://www.w3.org/2000/svg"><circle cx="70" cy="70" fill="#4d5c7d" r="64"/><path d="m39.2866898 105.8647385 28.7529297 28.0856857c.65271.0197144 1.3029175.0495605 1.9603882.0495605 35.0852661 0 63.56147-28.2357101 63.9803543-63.22155l-39.3236771-39.3236713-39.2000122-4.3800049-.8300171 7.4400043-.8499756 7.6500245h-11.5599976c-2.2900391 0-4.1400146 1.8499756-4.1400146 4.1399536v56.6400146c0 1.1400146.460022 2.1699829 1.210022 2.9100342z" opacity=".1"/><path d="m51.430817 29.050453h39.444679v70.337601h-39.444679z" fill="#e6e9ef" transform="matrix(.994 .111 -.111 .994 7.576 -7.508)"/><path d="m54.922806 29.245062h39.444679v7.483881h-39.444679z" fill="#d15241" transform="matrix(.994 .111 -.111 .994 4.128 -8.09)"/><path d="m85.4197693 42.1668015h-43.2052231c-2.2832985 0-4.1342278 1.8509293-4.1342278 4.1341705v56.6416473c0 2.2832413 1.8509293 4.1341705 4.1342278 4.1341705h43.2052231c2.2832413 0 4.1341705-1.8509293 4.1341705-4.1341705v-56.6416473c0-2.2832413-1.8509292-4.1341705-4.1341705-4.1341705z" fill="#44c4a1"/><g fill="#ebf0f3"><path d="m54.8777046 73.0495148c-.5524178-.7181778-1.8374519-.7183151-2.9019775.1589584.5162315-.5835953 1.0876961-1.1289062 1.7143898-1.6277618.7374268.7606659 2.189991.6262131 3.6077118-.0288239-.3773766-.8191147-1.6989365-1.0830154-2.9849281-.4384842.5957565-.421051 1.2362213-.8023834 1.9213829-1.1379929 1.4370041-.0569992 3.160614-.6254807 4.4718552-1.5066605h-.0000458c-1.5142593-.5296555-3.7590179.1128311-4.6573639 1.2969818-.674675.3343887-1.306469.712471-1.8953705 1.1286774 1.0123291-.98349 1.7366791-2.1280594 1.3497581-2.9541321-.0000038-.0000153-.0000038-.0000076-.0000038-.0000229-1.9416389.9125671-2.629055 2.6149597-1.9839439 3.4300232-.6381836.5079956-1.2201233 1.0633087-1.7458191 1.6576004.7269554-1.1517029 1.1122208-2.3968735.550251-3.1200409l-.0000191-.0000153c-1.5747719 1.2572784-1.8440628 3.0443878-1.0407028 3.7061844-.4894485.6185303-.9226532 1.2733383-1.299614 1.9561005.4499741-1.2646866.5259895-2.5468597-.175312-3.1364212 0 0-.0000114 0-.0000114-.0000076-1.2078705 1.5300446-1.0919914 3.3230743-.1714401 3.8046341-.3407364.699913-.6252174 1.4250946-.8534508 2.1671982.1813736-1.3243027-.021946-2.5857925-.8268623-3.017868h-.0000191c-.8410034 1.7309113-.3728447 3.4576874.6238327 3.7399673-.1920052.7521286-.3277512 1.5185242-.4072723 2.2907867-.0788956-1.3320541-.53162-2.521019-1.4044647-2.7787857h-.0000153c-.4741402 1.8598404.3134193 3.4544449 1.34515 3.5266113-.0432777.7752075-.0303192 1.5536118.0389023 2.3268967-.3307915-1.2896957-1.0030403-2.359993-1.9080925-2.4337082l-.0000229.0000076c-.1072235 1.9168396.9667397 3.3198929 1.9925079 3.1790619.1054497.769104.2671432 1.5303879.4850845 2.2755508-.5742874-1.1986008-1.4361839-2.1104202-2.3377533-1.9971619l-.0000153.0000076c.2596321 1.9018478 1.5871582 3.0604095 2.565876 2.7118683.2541733.7338333.5645905 1.4488373.9312515 2.1366653-.8094711-1.0605316-1.8310738-1.7795639-2.6934395-1.4835663 0 .0000076-.0000076.0000076-.0000076.0000076.6264648 1.8149948 2.1746788 2.682663 3.0652695 2.1394653.4029045.6694489.8620491 1.3090286 1.3774376 1.9103775-1.0362206-.8773499-2.1877518-1.3751221-2.9751663-.907547 0 0-.0000076 0-.0000229.0000076.9934006 1.6561813 2.7293053 2.1928253 3.4907341 1.4764633.5516205.575882 1.1594963 1.1108551 1.823616 1.5965729-1.2546463-.650528-2.5060654-.9044342-3.1829224-.2835312l-.0000114.0000229c1.3602638 1.4254379 3.2509422 1.5975418 3.8421936.7372742.7003479.4531403 1.4569473.8543549 2.2698021 1.1952972-1.4647675-.3816528-2.7862206-.3751678-3.3167076.37397l-.0000153.0000229c1.7271576 1.1228714 3.7397499.9032135 4.1196938-.0635681.9265175.3287354 1.9200058.5824814 2.9804573.7504349.0140114-.0884628.028019-.1769333.0420303-.2653961-1.0413666-.1649551-2.0169601-.4141388-2.9268074-.7369308.2757072-1.0095673-.7156067-2.2190857-1.961792-3.0422211-.5209808.7373352-.132 1.9533081 1.1732674 2.7373734-.798214-.3348007-1.5411949-.7288055-2.2289467-1.1737747.5066452-.921524-.0921669-2.2778168-1.0719795-3.3192749-.6672935.6110535-.5839005 1.8652115.4245872 2.8736877-.6521721-.4769745-1.2491074-1.0023346-1.7907982-1.5678406.6965256-.7923203.4572639-2.2217789-.256134-3.4291229-.7779198.459549-.9702034 1.6947784-.2501297 2.87043-.506115-.5905228-.9569931-1.2185898-1.3526421-1.8759918.8453293-.6298981.9327583-2.0651016.4857445-3.3862305-.8528595.2898254-1.2909355 1.4551468-.8508797 2.7421341-.3600578-.6754303-.6648941-1.3775787-.9144936-2.0982208.9530907-.4422684 1.3342781-1.8225479 1.1536407-3.2052002-.8920135.1089859-1.5460281 1.1589432-1.377636 2.5033417-.2140198-.7317276-.3728104-1.4793015-.4763527-2.2345734 1.0197754-.2376022 1.6618004-1.5085144 1.7475739-2.9004593-.8954811-.0760269-1.7355461.8191757-1.8304482 2.1685104-.0679703-.7593689-.0806961-1.5237808-.0382042-2.2850189 1.0454292-.0238495 1.9153748-1.1374664 2.2675438-2.4865112-.863327-.258316-1.8594284.4487457-2.2092857 1.7521515.0780792-.7583694.2113991-1.5109482.3999481-2.2495575 1.029995.190918 2.0950241-.7239227 2.7135353-1.9778671-.795372-.4307404-1.9177055.0604095-2.5141449 1.2687683.2241249-.7287521.5034904-1.4408798.8380928-2.1281967.9735069.3985825 2.2006264-.2825012 3.0855484-1.3890152-.6917801-.5863113-1.9103851-.3328857-2.7450294.7328415.3701782-.6704788.7955894-1.3135071 1.276226-1.9208984.8760073.5911943 2.2323153.1723635 3.3836214-.734535z"/><path d="m72.7565536 73.0495148c.5524139-.7181778 1.8374481-.7183151 2.9019775.1589584-.5162354-.5835953-1.0876999-1.1289062-1.7143936-1.6277618-.7374268.7606659-2.1899872.6262131-3.6077118-.0288239.3773804-.8191147 1.6989365-1.0830154 2.9849319-.4384842-.5957565-.421051-1.2362213-.8023834-1.9213867-1.1379929-1.4370041-.0569992-3.160614-.6254807-4.4718552-1.5066605h.0000458c1.5142593-.5296555 3.7590179.1128311 4.6573639 1.2969818.674675.3343887 1.3064728.712471 1.8953705 1.1286774-1.0123291-.98349-1.7366791-2.1280594-1.3497543-2.9541321 0-.0000153 0-.0000076 0-.0000229 1.9416428.9125671 2.6290588 2.6149597 1.9839478 3.4300232.6381836.5079956 1.2201233 1.0633087 1.7458191 1.6576004-.7269592-1.1517029-1.1122208-2.3968735-.5502548-3.1200409.0000076 0 .0000153-.0000153.0000153-.0000153 1.5747757 1.2572784 1.8440704 3.0443878 1.0407104 3.7061844.4894485.6185303.9226532 1.2733383 1.299614 1.9561005-.4499741-1.2646866-.5259933-2.5468597.1753082-3.1364212 0 0 .0000153 0 .0000153-.0000076 1.2078705 1.5300446 1.0919876 3.3230743.1714401 3.8046341.3407364.699913.6252136 1.4250946.853447 2.1671982-.1813736-1.3243027.0219498-2.5857925.8268661-3.017868h.0000229c.8409958 1.7309113.3728409 3.4576874-.6238403 3.7399673.192009.7521286.3277512 1.5185242.4072723 2.2907867.0788956-1.3320541.5316238-2.521019 1.4044724-2.7787857h.0000153c.4741364 1.8598404-.3134232 3.4544449-1.3451538 3.5266113.0432739.7752075.0303192 1.5536118-.0389023 2.3268967.3307877-1.2896957 1.0030365-2.359993 1.9080887-2.4337082l.0000229.0000076c.1072235 1.9168396-.9667358 3.3198929-1.9925079 3.1790619-.1054459.769104-.2671432 1.5303879-.4850845 2.2755508.574295-1.1986008 1.4361877-2.1104202 2.3377609-1.9971619l.0000153.0000076c-.2596359 1.9018478-1.5871658 3.0604095-2.5658798 2.7118683-.2541733.7338333-.5645905 1.4488373-.9312515 2.1366653.8094711-1.0605316 1.8310699-1.7795639 2.6934357-1.4835663 0 .0000076.0000153.0000076.0000153.0000076-.6264725 1.8149948-2.1746826 2.682663-3.0652771 2.1394653-.4029007.6694489-.8620453 1.3090286-1.3774338 1.9103775 1.0362167-.8773499 2.1877518-1.3751221 2.9751663-.907547 0 0 .0000076 0 .0000229.0000076-.9934006 1.6561813-2.7293015 2.1928253-3.4907303 1.4764633-.5516281.575882-1.1595001 1.1108551-1.8236237 1.5965729 1.2546463-.650528 2.5060654-.9044342 3.1829224-.2835312l.0000153.0000229c-1.3602676 1.4254379-3.250946 1.5975418-3.8421936.7372742-.7003479.4531403-1.4569473.8543549-2.2697983 1.1952972 1.4647598-.3816528 2.7862167-.3751678 3.3167038.37397l.0000153.0000229c-1.7271576 1.1228714-3.7397461.9032135-4.1196976-.0635681-.9265137.3287354-1.9199982.5824814-2.9804535.7504349-.0140152-.0884628-.0280228-.1769333-.0420303-.2653961 1.0413666-.1649551 2.0169601-.4141388 2.9268036-.7369308-.2757034-1.0095673.7156067-2.2190857 1.9617996-3.0422211.5209732.7373352.1319962 1.9533081-1.1732712 2.7373734.7982101-.3348007 1.5411911-.7288055 2.2289429-1.1737747-.5066376-.921524.0921707-2.2778168 1.0719833-3.3192749.6672897.6110535.5839005 1.8652115-.4245911 2.8736877.6521759-.4769745 1.2491074-1.0023346 1.790802-1.5678406-.6965256-.7923203-.4572678-2.2217789.256134-3.4291229.777916.459549.9701996 1.6947784.2501297 2.87043.5061111-.5905228.9569931-1.2185898 1.3526459-1.8759918-.8453369-.6298981-.9327621-2.0651016-.4857483-3.3862305.8528595.2898254 1.2909317 1.4551468.8508759 2.7421341.3600616-.6754303.6648941-1.3775787.9144974-2.0982208-.9530869-.4422684-1.3342819-1.8225479-1.1536407-3.2052002.8920135.1089859 1.5460281 1.1589432 1.3776398 2.5033417.2140198-.7317276.3728027-1.4793015.4763489-2.2345734-1.0197754-.2376022-1.6618042-1.5085144-1.7475739-2.9004593.8954773-.0760269 1.7355423.8191757 1.8304443 2.1685104.0679703-.7593689.0806961-1.5237808.038208-2.2850189-1.045433-.0238495-1.9153748-1.1374664-2.2675476-2.4865112.863327-.258316 1.8594284.4487457 2.2092896 1.7521515-.0780792-.7583694-.2114029-1.5109482-.3999481-2.2495575-1.0299988.190918-2.0950241-.7239227-2.7135391-1.9778671.795372-.4307404 1.9177094.0604095 2.5141449 1.2687683-.2241211-.7287521-.5034866-1.4408798-.838089-2.1281967-.9735107.3985825-2.2006302-.2825012-3.0855484-1.3890152.6917801-.5863113 1.9103851-.3328857 2.7450256.7328415-.3701782-.6704788-.7955856-1.3135071-1.2762222-1.9208984-.8760075.5911943-2.2323155.1723635-3.3836217-.734535z"/><path d="m63.8171272 72.3548431c-5.6944122 0-10.3271294 4.6327209-10.3271294 10.3271332s4.6327171 10.3271332 10.3271294 10.3271332 10.3271294-4.6327209 10.3271294-10.3271332-4.6327133-10.3271332-10.3271294-10.3271332zm5.6467629 9.9043274c-.0268402-1.263504-.167366-2.46418-.4125214-3.5624161 2.3186646.7977905 3.9382172 2.0977631 4.2035751 3.5624161zm-.8455506 0h-4.3784027v-4.3784027c1.3717499.032547 2.6771622.2187958 3.8496552.5287476.3099441 1.172493.4962005 2.4779053.5287475 3.8496551zm-4.3784027-5.2239532v-3.7910538c1.464653.2653503 2.7646255 1.8849106 3.5624161 4.2035751-1.0982437-.2451629-2.298912-.3856811-3.5624161-.4125213zm-.8456154-3.7910538v3.7910538c-1.263504.0268402-2.4641762.1673584-3.5624161.4125214.7978211-2.3186646 2.0977631-3.9382248 3.5624161-4.2035752zm0 4.6366043v4.3784027h-4.3784065c.0325508-1.3717499.2188034-2.6771622.5287514-3.8496552 1.172493-.3099517 2.4779053-.4962005 3.8496551-.5287475zm-5.2239532 4.3784027h-3.7910576c.265358-1.464653 1.8849144-2.7646255 4.2035789-3.5624161-.2451591 1.0982361-.3856811 2.2989121-.4125213 3.5624161zm0 .8456116c.0268402 1.263504.1673622 2.46418.4125214 3.5624161-2.3186646-.797821-3.938221-2.0977631-4.2035789-3.5624161zm.8455467 0h4.3784065v4.3784103c-1.3717499-.0325546-2.6771622-.2188034-3.8496552-.5287552-.3099479-1.1724929-.4962005-2.4779052-.5287513-3.8496551zm4.3784065 5.2239533v3.7910538c-1.464653-.2653503-2.764595-1.8849106-3.5624161-4.2035751 1.09824.2451629 2.2989121.385681 3.5624161.4125213zm.8456154 3.7910537v-3.7910538c1.263504-.0268402 2.4641724-.1673584 3.5624161-.4125214-.7977905 2.3186646-2.0977631 3.9382249-3.5624161 4.2035752zm0-4.6365967v-4.3784103h4.3784027c-.032547 1.3717499-.2188034 2.6771622-.5287476 3.8496552-1.1724929.3099517-2.4779052.4962005-3.8496551.5287551zm5.2239533-4.3784103h3.7910538c-.265358 1.464653-1.8849106 2.764595-4.2035751 3.5624161.2451552-1.0982361.3856811-2.2989121.4125213-3.5624161zm3.427391-3.1630402c-.9399567-.9491806-2.3599167-1.72612-4.0951538-2.2387619-.5126495-1.7352448-1.2895813-3.1551971-2.2387695-4.0951614 3.0273743.9160538 5.4178772 3.3065567 6.3339233 6.3339233zm-11.8143844-6.3339233c-.9491844.9399643-1.72612 2.3599167-2.2387695 4.0951614-1.7352715.5126419-3.1551933 1.2895813-4.0951538 2.2388.9160461-3.0274352 3.3065223-5.4178771 6.3339233-6.3339614zm-6.3339234 11.8143539c.9399605.9492188 2.3598824 1.7261581 4.0951538 2.2388.5126495 1.7352753 1.2895851 3.1551971 2.2388039 4.0951614-3.0274734-.9160536-5.4179115-3.3064879-6.3339577-6.3339614zm11.814354 6.3339615c.9492188-.9399643 1.7261505-2.3598862 2.2388-4.0951614 1.7352371-.5126419 3.1551971-1.2895813 4.0951538-2.2387619-.9160766 3.0273971-3.3065185 5.4178696-6.3339538 6.3339233z"/><path d="m48.507015 51.069088h31.452246v2.128347h-31.452246z"/><path d="m48.507015 56.981163h15.329931v2.128347h-15.329931z"/></g></svg>