<?xml version="1.0" encoding="iso-8859-1"?>
<!-- Generator: Adobe Illustrator 19.0.0, SVG Export Plug-In . SVG Version: 6.00 Build 0)  -->
<svg version="1.1" id="Layer_1" xmlns="http://www.w3.org/2000/svg" xmlns:xlink="http://www.w3.org/1999/xlink" x="0px" y="0px"
	 viewBox="0 0 512 512" style="enable-background:new 0 0 512 512;" xml:space="preserve">
<circle style="fill:#FF8E31;" cx="256" cy="256" r="256"/>
<path style="fill:#ED7425;" d="M504.783,316.329L338.762,150.31h-25.27l-38.548-38.548c-1.39-1.352-3.146-2.051-4.938-2.051h-80.822
	c-1.795,0-3.584,0.699-4.941,2.051c-1.349,1.352-2.043,3.144-2.043,4.938v33.61h-8.998c-3.953,0-7.204,3.251-7.204,7.24v86.787
	V395.08c0,1.866,0.694,3.699,2.122,5.084l110.764,110.764C389.22,501.143,479.388,421.409,504.783,316.329z"/>
<path style="fill:#E1EFFA;" d="M173.22,161.116c-1.984,0-3.625-1.6-3.625-3.579c0-1.987,1.638-3.628,3.625-3.628h160.963v7.206
	H173.22V161.116z"/>
<path style="fill:#0575A5;" d="M173.22,153.91h165.555v-3.581H173.22c-3.968,0-7.206,3.22-7.206,7.209v237.545
	c0,1.861,0.694,3.686,2.125,5.092c1.4,1.403,3.22,2.112,5.082,2.112h165.555c1.864,0,3.681-0.709,5.084-2.112
	c1.434-1.405,2.122-3.233,2.122-5.092V168.328c0-1.866-0.691-3.684-2.122-5.084c-1.405-1.408-3.223-2.127-5.084-2.127H173.22
	c-1.984,0-3.625-1.6-3.625-3.579C169.595,155.548,171.233,153.91,173.22,153.91z"/>
<path style="fill:#283A4D;" d="M169.595,157.537c0,1.984,1.638,3.579,3.625,3.579v241.17c-1.861,0-3.681-0.714-5.082-2.112
	c-1.431-1.405-2.125-3.233-2.125-5.092V157.537c0-3.988,3.238-7.209,7.206-7.209v3.581
	C171.233,153.91,169.595,155.548,169.595,157.537z"/>
<g>
	<path style="fill:#FFFFFF;" d="M216.98,336.97h-5.44v13.496h1.674v-5.358h3.766c2.668,0,4.227-1.856,4.227-4.081
		C221.207,338.819,219.676,336.97,216.98,336.97z M216.742,343.601h-3.525v-5.148h3.525c1.628,0,2.724,1.068,2.724,2.578
		C219.466,342.548,218.371,343.601,216.742,343.601z M225.928,336.97l-5.468,13.496h1.964l1.167-2.998h6.756l1.201,2.998h1.923
		l-5.45-13.496H225.928z M224.125,345.987l2.854-7.299l2.883,7.299H224.125z M244.326,346.739c0,1.966-1.334,3.983-5.01,3.983
		c-2.322,0-4.05-0.873-5.179-2.143l1.011-1.3c0.873,1.016,2.34,1.961,4.242,1.961c2.429,0,3.187-1.321,3.187-2.36
		c0-3.497-8.02-1.559-8.02-6.377c0-2.232,1.987-3.773,4.685-3.773c2.051,0,3.638,0.709,4.774,1.917l-1.011,1.216
		c-1.019-1.129-2.445-1.615-3.93-1.615c-1.592,0-2.765,0.873-2.765,2.158C236.316,343.452,244.326,341.699,244.326,346.739z
		 M256.205,346.739c0,1.966-1.324,3.983-4.969,3.983c-2.335,0-4.083-0.873-5.194-2.143l0.991-1.3
		c0.878,1.016,2.342,1.961,4.25,1.961c2.417,0,3.174-1.321,3.174-2.36c0-3.497-8.013-1.559-8.013-6.377
		c0-2.232,1.987-3.773,4.677-3.773c2.058,0,3.638,0.709,4.774,1.917l-0.993,1.216c-1.029-1.129-2.455-1.615-3.909-1.615
		c-1.618,0-2.801,0.873-2.801,2.158C248.192,343.452,256.205,341.699,256.205,346.739z M264.159,336.97h-5.432v13.496h1.7v-5.358
		h3.732c2.714,0,4.26-1.856,4.26-4.081C268.419,338.819,266.898,336.97,264.159,336.97z M263.956,343.601h-3.533v-5.148h3.533
		c1.608,0,2.724,1.068,2.724,2.578C266.683,342.548,265.564,343.601,263.956,343.601z M276.81,336.73
		c-3.996,0-6.684,3.008-6.684,7.002c0,3.999,2.691,6.989,6.684,6.989c3.999,0,6.758-2.993,6.758-6.989
		C283.569,339.738,280.806,336.73,276.81,336.73z M276.81,349.24c-3.031,0-4.959-2.36-4.959-5.507c0-3.167,1.928-5.512,4.959-5.512
		c3.036,0,5.01,2.345,5.01,5.512C281.82,346.88,279.844,349.24,276.81,349.24z M295.857,341.03c0-2.496-1.756-4.06-4.26-4.06h-5.432
		v13.496h1.684v-5.358h2.729l3.43,5.358h1.987l-3.645-5.491C294.175,344.801,295.857,343.473,295.857,341.03z M287.849,343.616
		v-5.164h3.564c1.585,0,2.724,1.044,2.724,2.578c0,1.518-1.139,2.586-2.724,2.586H287.849z M307.661,336.97v1.482h-4.303v12.014
		h-1.684v-12.014h-4.27v-1.482H307.661z"/>
	<path style="fill:#FFFFFF;" d="M259.574,309.158c-0.399,0-0.801-0.008-1.172-0.008l-0.968-0.02
		c-11.569-0.52-22.628-5.217-31.043-13.225c-0.589-0.568-1.172-1.152-1.736-1.736c-8.269-8.673-13.007-20.05-13.302-32.033
		c-0.018-0.415-0.018-0.819-0.018-1.201c0-0.415,0-0.801,0.018-1.203c0.294-12.001,5.033-23.365,13.302-32.069
		c0.494-0.543,1.06-1.106,1.731-1.731c8.42-8.023,19.479-12.69,31.06-13.222c0.31,0,0.625,0,0.929-0.005
		c0.397-0.008,0.799-0.015,1.198-0.015c0.451,0,0.85,0.008,1.216,0.015c0.346,0.005,0.653,0.005,0.97,0.005
		c11.584,0.532,22.633,5.202,31.053,13.222c0.74,0.681,1.257,1.224,1.725,1.731c8.279,8.704,13.005,20.073,13.299,32.064l0.008,0.21
		c0,0.33,0.008,0.653,0.008,0.998c0,0.323-0.008,0.632-0.008,0.947l-0.008,0.253c-0.294,11.976-5.02,23.36-13.299,32.041
		c-0.443,0.512-0.998,1.068-1.725,1.728c-8.425,8.008-19.466,12.705-31.06,13.225l-0.919,0.02c-0.407,0-0.806,0.008-1.216,0.008
		h-0.043V309.158z M258.074,286.124c-5.076,0.097-10.071,0.827-14.851,2.074l-0.786,0.223l0.364,0.724
		c3.686,7.247,8.842,13.443,14.889,17.915l1.021,0.796v-21.737L258.074,286.124z M260.452,307.837l1.075-0.801
		c6.021-4.439,11.18-10.632,14.889-17.887l0.323-0.732l-0.748-0.223c-4.808-1.249-9.807-1.974-14.851-2.074l-0.691-0.008v21.724
		L260.452,307.837L260.452,307.837z M278.182,289.431c-3.177,6.413-7.334,11.912-12.332,16.384l-1.643,1.446l2.173-0.323
		c9.114-1.362,17.551-5.361,24.42-11.602l0.694-0.596l-0.786-0.435c-3.653-2.143-7.59-3.878-11.702-5.225l-0.576-0.161
		L278.182,289.431z M240.192,289.08c-4.106,1.339-8.041,3.082-11.722,5.225l-0.745,0.435l0.668,0.596
		c6.876,6.241,15.301,10.24,24.428,11.602l2.179,0.323l-1.664-1.446c-4.979-4.472-9.165-9.974-12.339-16.384l-0.261-0.512
		L240.192,289.08z M213.123,262.454c0.387,11.466,4.987,22.354,12.969,30.656l0.34,0.387l0.445-0.274
		c3.832-2.317,8.018-4.227,12.421-5.66l0.694-0.261l-0.294-0.617c-3.269-7.473-5.059-15.88-5.268-24.261v-0.609h-21.335
		L213.123,262.454z M284.746,262.426c-0.189,8.399-2.01,16.806-5.263,24.261l-0.279,0.617l0.653,0.261
		c4.434,1.434,8.604,3.343,12.444,5.66l0.435,0.274l0.361-0.387c8-8.294,12.6-19.187,12.966-30.656l0.033-0.64h-21.345
		L284.746,262.426z M260.452,284.352l0.648,0.021c5.407,0.092,10.752,0.906,15.89,2.317l0.54,0.136l0.207-0.527
		c3.254-7.299,5.043-15.542,5.268-23.849l0.01-0.632h-22.561v22.536h-0.002V284.352z M236.18,262.449
		c0.225,8.315,2.03,16.553,5.281,23.849l0.212,0.527l0.54-0.136c5.123-1.411,10.478-2.225,15.885-2.317l0.609-0.021v-22.538H236.16
		L236.18,262.449z M292.311,228.628c-3.871,2.348-8.041,4.242-12.452,5.668l-0.653,0.218l0.279,0.671
		c3.254,7.455,5.071,15.831,5.263,24.23l0.005,0.645h21.345l-0.033-0.694c-0.374-11.459-4.982-22.346-12.966-30.638l-0.361-0.364
		L292.311,228.628z M276.992,235.177c-5.14,1.408-10.486,2.186-15.892,2.33l-0.648,0.013v22.541h22.561l-0.01-0.689
		c-0.225-8.276-2.015-16.53-5.261-23.816l-0.205-0.538L276.992,235.177z M241.454,235.558c-3.251,7.286-5.048,15.539-5.274,23.816
		l-0.02,0.689h22.548v-22.541l-0.609-0.013c-5.404-0.143-10.76-0.919-15.885-2.33l-0.54-0.159L241.454,235.558z M226.092,228.728
		c-7.982,8.302-12.582,19.187-12.969,30.638l-0.028,0.694h21.335v-0.645c0.21-8.387,2.01-16.758,5.268-24.225l0.294-0.676
		l-0.694-0.212c-4.375-1.434-8.584-3.323-12.411-5.67l-0.458-0.264L226.092,228.728z M260.452,235.761l0.694-0.02
		c5.059-0.133,10.066-0.819,14.845-2.112l0.748-0.2l-0.323-0.717c-3.709-7.247-8.85-13.443-14.889-17.948l-1.075-0.755
		L260.452,235.761L260.452,235.761z M257.687,214.758c-6.047,4.506-11.203,10.701-14.899,17.956l-0.351,0.717l0.776,0.2
		c4.79,1.295,9.784,1.976,14.861,2.112l0.635,0.02v-21.755L257.687,214.758z M252.818,214.93
		c-9.129,1.313-17.572,5.327-24.433,11.571l-0.673,0.591l0.75,0.463c3.666,2.122,7.603,3.871,11.73,5.189l0.54,0.189l0.256-0.517
		c3.177-6.4,7.363-11.937,12.342-16.364l1.664-1.457L252.818,214.93z M265.851,216.056c4.997,4.434,9.155,9.969,12.349,16.364
		l0.248,0.517l0.561-0.189c4.104-1.311,8.051-3.069,11.702-5.189l0.786-0.463l-0.694-0.599c-6.868-6.236-15.296-10.253-24.42-11.564
		l-2.173-0.33L265.851,216.056z"/>
</g>
<g>
	<path style="fill:#283A4D;" d="M231.908,157.535v-5.258h5.988v5.258h39.096v-40.842c0-1.792-0.694-3.587-2.035-4.938
		c-1.39-1.341-3.151-2.043-4.943-2.043h-48.873v47.823H231.908z M231.908,121.556h5.988v26.278h-5.988V121.556z"/>
	<path style="fill:#283A4D;" d="M182.2,116.693l0.002,40.842h17.257v-47.823h-10.271c-1.797,0-3.589,0.694-4.938,2.043
		C182.902,113.106,182.205,114.9,182.2,116.693z"/>
</g>
<g>
	<rect x="231.91" y="152.28" style="fill:#FFFFFF;" width="5.988" height="5.258"/>
	<rect x="231.91" y="121.56" style="fill:#FFFFFF;" width="5.988" height="26.28"/>
</g>
<rect x="199.46" y="109.71" style="fill:#0684BA;" width="21.681" height="47.823"/>
<g>
</g>
<g>
</g>
<g>
</g>
<g>
</g>
<g>
</g>
<g>
</g>
<g>
</g>
<g>
</g>
<g>
</g>
<g>
</g>
<g>
</g>
<g>
</g>
<g>
</g>
<g>
</g>
<g>
</g>
</svg>
