<?xml version="1.0" encoding="iso-8859-1"?>
<!-- Generator: Adobe Illustrator 19.0.0, SVG Export Plug-In . SVG Version: 6.00 Build 0)  -->
<svg version="1.1" id="Capa_1" xmlns="http://www.w3.org/2000/svg" xmlns:xlink="http://www.w3.org/1999/xlink" x="0px" y="0px"
	 viewBox="0 0 512 512" style="enable-background:new 0 0 512 512;" xml:space="preserve">
<circle style="fill:#DADADC;" cx="256" cy="256" r="256"/>
<path style="fill:#B0AFB5;" d="M512,256c0-3.77-0.099-7.516-0.26-11.247L367.165,100.179c-27.95-29.371-67.419-47.68-111.165-47.68
	c-84.739,0-153.434,68.695-153.434,153.434c0,43.769,18.338,83.244,47.739,111.195l40.54,40.622L256,459.502l47.988,47.988
	C422.432,485.024,512,380.981,512,256z"/>
<polygon style="fill:#95239B;" points="168.703,323.169 256,459.502 343.297,323.169 "/>
<polygon style="fill:#6B1472;" points="343.3,323.165 256,459.498 256,323.165 "/>
<circle style="fill:#D256D4;" cx="256" cy="205.93" r="153.43"/>
<path style="fill:#95239B;" d="M409.434,205.932c0,84.736-68.698,153.434-153.434,153.434V52.498
	C340.736,52.498,409.434,121.196,409.434,205.932z"/>
<circle style="fill:#00B8C0;" cx="256" cy="205.93" r="101.14"/>
<path style="fill:#00787C;" d="M357.136,205.932c0,55.855-45.281,101.136-101.136,101.136V104.796
	C311.855,104.796,357.136,150.077,357.136,205.932z"/>
<path style="fill:#00F8FE;" d="M256,95.947c-60.743,0-109.985,49.242-109.985,109.985S195.257,315.917,256,315.917
	s109.985-49.242,109.985-109.985S316.743,95.947,256,95.947z M318.784,199.981c-0.394-12.438-2.026-24.479-4.783-35.702
	c3.965,1.653,7.738,3.482,11.278,5.489c14.873,8.431,24.055,18.988,26.463,30.213H318.784z M308.246,199.981h-46.295v-46.295
	c14.17,0.473,27.747,2.626,39.994,6.301C305.621,172.234,307.773,185.811,308.246,199.981z M261.951,143.148V110.19
	c11.225,2.408,21.782,11.59,30.213,26.463c2.007,3.54,3.837,7.313,5.489,11.278C286.431,145.174,274.389,143.542,261.951,143.148z
	 M250.049,110.19v32.958c-12.438,0.394-24.479,2.026-35.702,4.783c1.653-3.965,3.482-7.738,5.489-11.278
	C228.267,121.78,238.824,112.598,250.049,110.19z M250.049,153.686v46.295h-46.295c0.473-14.17,2.626-27.747,6.301-39.994
	C222.301,156.312,235.879,154.159,250.049,153.686z M193.216,199.981h-32.958c2.408-11.225,11.59-21.782,26.463-30.213
	c3.54-2.007,7.313-3.837,11.278-5.489C195.242,175.502,193.61,187.543,193.216,199.981z M193.216,211.883
	c0.394,12.438,2.026,24.479,4.783,35.702c-3.965-1.653-7.738-3.482-11.278-5.489c-14.873-8.431-24.055-18.988-26.463-30.213H193.216
	z M203.754,211.883h46.295v46.295c-14.17-0.473-27.747-2.626-39.994-6.301C206.38,239.631,204.227,226.053,203.754,211.883z
	 M250.049,268.716v32.958c-11.225-2.408-21.782-11.59-30.213-26.463c-2.007-3.54-3.837-7.313-5.489-11.278
	C225.569,266.69,237.611,268.322,250.049,268.716z M261.951,301.675v-32.958c12.438-0.394,24.479-2.026,35.702-4.783
	c-1.653,3.965-3.482,7.738-5.489,11.278C283.733,290.085,273.176,299.267,261.951,301.675z M261.951,258.178v-46.295h46.295
	c-0.473,14.17-2.626,27.747-6.301,39.994C289.698,255.553,276.121,257.705,261.951,258.178z M318.784,211.883h32.958
	c-2.408,11.225-11.59,21.782-26.463,30.213c-3.54,2.007-7.313,3.837-11.278,5.489C316.758,236.363,318.39,224.321,318.784,211.883z
	 M349.279,174.899c-4.992-5.219-11.288-10.03-18.806-14.292c-6.155-3.489-12.927-6.491-20.168-8.98
	c-2.49-7.24-5.491-14.013-8.98-20.168c-4.262-7.518-9.073-13.814-14.292-18.806C316.35,122.402,339.53,145.582,349.279,174.899z
	 M224.966,112.653c-5.219,4.992-10.03,11.288-14.292,18.806c-3.489,6.155-6.491,12.927-8.98,20.168
	c-7.24,2.489-14.013,5.491-20.168,8.98c-7.518,4.262-13.814,9.073-18.806,14.292C172.47,145.582,195.65,122.402,224.966,112.653z
	 M162.721,236.966c4.992,5.219,11.288,10.03,18.806,14.292c6.155,3.489,12.927,6.491,20.168,8.98
	c2.49,7.24,5.491,14.013,8.98,20.168c4.262,7.518,9.073,13.814,14.292,18.806C195.65,289.462,172.47,266.282,162.721,236.966z
	 M287.034,299.211c5.219-4.992,10.03-11.288,14.292-18.806c3.489-6.155,6.491-12.927,8.98-20.168
	c7.24-2.49,14.013-5.491,20.168-8.98c7.518-4.262,13.814-9.073,18.806-14.292C339.53,266.282,316.35,289.462,287.034,299.211z"/>
<path style="fill:#00B8C0;" d="M256,95.95v219.964c60.743,0,109.982-49.239,109.982-109.982S316.743,95.95,256,95.95z
	 M318.788,199.982c-0.395-12.443-2.027-24.483-4.783-35.707c3.958,1.659,7.731,3.484,11.276,5.493
	c14.874,8.433,24.053,18.99,26.458,30.214H318.788z M351.739,211.882c-2.405,11.224-11.583,21.781-26.458,30.214
	c-3.545,2.01-7.319,3.835-11.276,5.493c2.755-11.224,4.388-23.264,4.783-35.707H351.739z M330.477,160.607
	c-6.16-3.493-12.935-6.494-20.174-8.977c-2.483-7.24-5.485-14.014-8.977-20.175c-4.265-7.512-9.074-13.813-14.295-18.806
	c29.319,9.749,52.503,32.934,62.253,62.253C344.289,169.681,337.988,164.872,330.477,160.607z M292.163,136.651
	c2.01,3.545,3.835,7.319,5.493,11.276c-11.224-2.755-23.264-4.388-35.707-4.783v-32.952
	C273.173,112.597,283.73,121.776,292.163,136.651z M301.948,159.984c3.677,12.25,5.827,25.826,6.301,39.998H261.95v-46.299
	C276.122,154.157,289.698,156.307,301.948,159.984z M308.249,211.882c-0.474,14.172-2.624,27.748-6.301,39.998
	c-12.25,3.677-25.826,5.827-39.998,6.301v-46.299H308.249z M297.657,263.937c-1.659,3.958-3.484,7.731-5.493,11.276
	c-8.433,14.874-18.99,24.053-30.214,26.458V268.72C274.393,268.325,286.433,266.693,297.657,263.937z M301.325,280.409
	c3.493-6.16,6.494-12.935,8.977-20.175c7.24-2.483,14.014-5.485,20.174-8.977c7.512-4.265,13.813-9.074,18.806-14.295
	c-9.749,29.319-32.934,52.503-62.253,62.253C292.251,294.221,297.06,287.921,301.325,280.409z"/>
<g>
</g>
<g>
</g>
<g>
</g>
<g>
</g>
<g>
</g>
<g>
</g>
<g>
</g>
<g>
</g>
<g>
</g>
<g>
</g>
<g>
</g>
<g>
</g>
<g>
</g>
<g>
</g>
<g>
</g>
</svg>
